<?xml version="1.0" encoding="UTF-8" standalone="no"?>
<!DOCTYPE svg PUBLIC "-//W3C//DTD SVG 1.1//EN"
 "http://www.w3.org/Graphics/SVG/1.1/DTD/svg11.dtd">
<!-- Generated by graphviz version 2.42.4 (0)
 -->
<!-- Title: gcp_arch Pages: 1 -->
<svg width="3508pt" height="517pt"
 viewBox="0.00 0.00 3508.00 517.00" xmlns="http://www.w3.org/2000/svg" xmlns:xlink="http://www.w3.org/1999/xlink">
<g id="graph0" class="graph" transform="scale(1 1) rotate(0) translate(4 513)">
<title>gcp_arch</title>
<polygon fill="white" stroke="transparent" points="-4,4 -4,-513 3504,-513 3504,4 -4,4"/>
<g id="clust1" class="cluster">
<title>cluster_existing</title>
<path fill="white" stroke="#ea4335" stroke-dasharray="5,2" d="M2255,-8C2255,-8 3012,-8 3012,-8 3018,-8 3024,-14 3024,-20 3024,-20 3024,-93 3024,-93 3024,-99 3018,-105 3012,-105 3012,-105 2255,-105 2255,-105 2249,-105 2243,-99 2243,-93 2243,-93 2243,-20 2243,-20 2243,-14 2249,-8 2255,-8"/>
<text text-anchor="middle" x="2633.5" y="-89.8" font-family="Times,serif" font-size="14.00">Existing path (unchanged)</text>
</g>
<g id="clust2" class="cluster">
<title>cluster_new</title>
<path fill="white" stroke="#4285f4" d="M760,-113C760,-113 3061,-113 3061,-113 3067,-113 3073,-119 3073,-125 3073,-125 3073,-489 3073,-489 3073,-495 3067,-501 3061,-501 3061,-501 760,-501 760,-501 754,-501 748,-495 748,-489 748,-489 748,-125 748,-125 748,-119 754,-113 760,-113"/>
<text text-anchor="middle" x="1910.5" y="-485.8" font-family="Times,serif" font-size="14.00">New independent governance path</text>
</g>
<!-- ghe -->
<g id="node1" class="node">
<title>ghe</title>
<polygon fill="white" stroke="transparent" points="0,-56 0,-114 230,-114 230,-56 0,-56"/>
<polygon fill="#f3f4f6" stroke="transparent" points="3,-59 3,-111 55,-111 55,-59 3,-59"/>
<text text-anchor="start" x="13.5" y="-78.8" font-family="Arial" font-size="24.00">🐙</text>
<text text-anchor="start" x="63" y="-88.8" font-family="Arial" font-size="14.00"> &#160;&#160;&#160;&#160;&#160;&#160;&#160;&#160;&#160;</text>
<text text-anchor="start" x="101" y="-88.8" font-family="Arial" font-weight="bold" font-size="13.00">GitHub Enterprise</text>
<text text-anchor="start" x="63" y="-74.8" font-family="Arial" font-size="14.00"> &#160;&#160;&#160;&#160;&#160;&#160;&#160;&#160;&#160;</text>
<text text-anchor="start" x="101" y="-74.8" font-family="Arial" font-size="10.00" fill="#374151">Audit log stream</text>
<text text-anchor="start" x="173" y="-74.8" font-family="Arial" font-size="14.00"> &#160;&#160;&#160;&#160;&#160;&#160;&#160;</text>
<polygon fill="none" stroke="#6b7280" points="0,-56 0,-114 230,-114 230,-56 0,-56"/>
</g>
<!-- gcs -->
<g id="node2" class="node">
<title>gcs</title>
<polygon fill="white" stroke="transparent" points="342,-56 342,-114 594,-114 594,-56 342,-56"/>
<polygon fill="#e8f0fe" stroke="transparent" points="345,-59 345,-111 397,-111 397,-59 345,-59"/>
<text text-anchor="start" x="355.5" y="-78.8" font-family="Arial" font-size="24.00">🪣</text>
<text text-anchor="start" x="405" y="-88.8" font-family="Arial" font-size="14.00"> &#160;&#160;&#160;&#160;&#160;&#160;&#160;&#160;&#160;</text>
<text text-anchor="start" x="443" y="-88.8" font-family="Arial" font-weight="bold" font-size="13.00">Cloud Storage Bucket</text>
<text text-anchor="start" x="405" y="-74.8" font-family="Arial" font-size="14.00"> &#160;&#160;&#160;&#160;&#160;&#160;&#160;&#160;&#160;</text>
<text text-anchor="start" x="443" y="-74.8" font-family="Arial" font-size="10.00" fill="#374151">Raw audit .json.gz files</text>
<text text-anchor="start" x="546" y="-74.8" font-family="Arial" font-size="14.00"> &#160;&#160;&#160;&#160;&#160;&#160;&#160;</text>
<polygon fill="none" stroke="#4285f4" points="342,-56 342,-114 594,-114 594,-56 342,-56"/>
</g>
<!-- ghe&#45;&gt;gcs -->
<g id="edge1" class="edge">
<title>ghe&#45;&gt;gcs</title>
<path fill="none" stroke="#4b5563" d="M230.1,-85C230.1,-85 333.78,-85 333.78,-85"/>
<polygon fill="#4b5563" stroke="#4b5563" points="333.78,-87.8 341.78,-85 333.78,-82.2 333.78,-87.8"/>
<text text-anchor="middle" x="286" y="-88" font-family="Arial" font-size="10.00">audit events</text>
</g>
<!-- cfc -->
<g id="node3" class="node">
<title>cfc</title>
<polygon fill="white" stroke="transparent" points="2251,-16 2251,-74 2516,-74 2516,-16 2251,-16"/>
<polygon fill="#fce8e6" stroke="transparent" points="2254.5,-19 2254.5,-71 2306.5,-71 2306.5,-19 2254.5,-19"/>
<text text-anchor="start" x="2274" y="-38.8" font-family="Arial" font-size="24.00">λ</text>
<text text-anchor="start" x="2314.5" y="-48.8" font-family="Arial" font-size="14.00"> &#160;&#160;&#160;&#160;&#160;&#160;&#160;&#160;&#160;</text>
<text text-anchor="start" x="2352.5" y="-48.8" font-family="Arial" font-weight="bold" font-size="13.00">Cloud Function</text>
<text text-anchor="start" x="2314.5" y="-34.8" font-family="Arial" font-size="14.00"> &#160;&#160;&#160;&#160;&#160;&#160;&#160;&#160;&#160;</text>
<text text-anchor="start" x="2352.5" y="-34.8" font-family="Arial" font-size="10.00" fill="#374151">Existing Chronicle forwarder</text>
<text text-anchor="start" x="2476.5" y="-34.8" font-family="Arial" font-size="14.00"> &#160;&#160;&#160;&#160;&#160;&#160;&#160;</text>
<polygon fill="none" stroke="#ea4335" points="2251,-16 2251,-74 2516,-74 2516,-16 2251,-16"/>
</g>
<!-- gcs&#45;&gt;cfc -->
<g id="edge2" class="edge">
<title>gcs&#45;&gt;cfc</title>
<path fill="none" stroke="#4b5563" d="M594.05,-65C594.05,-65 2242.79,-65 2242.79,-65"/>
<polygon fill="#4b5563" stroke="#4b5563" points="2242.79,-67.8 2250.79,-65 2242.79,-62.2 2242.79,-67.8"/>
<text text-anchor="middle" x="1378.5" y="-53" font-family="Arial" font-size="10.00">existing object trigger</text>
</g>
<!-- evt -->
<g id="node5" class="node">
<title>evt</title>
<polygon fill="white" stroke="transparent" points="782,-222 782,-280 1018,-280 1018,-222 782,-222"/>
<polygon fill="#e8f0fe" stroke="transparent" points="785,-225 785,-277 837,-277 837,-225 785,-225"/>
<text text-anchor="start" x="795.5" y="-244.8" font-family="Arial" font-size="24.00">⚡</text>
<text text-anchor="start" x="845" y="-254.8" font-family="Arial" font-size="14.00"> &#160;&#160;&#160;&#160;&#160;&#160;&#160;&#160;&#160;</text>
<text text-anchor="start" x="883" y="-254.8" font-family="Arial" font-weight="bold" font-size="13.00">Eventarc Trigger</text>
<text text-anchor="start" x="845" y="-240.8" font-family="Arial" font-size="14.00"> &#160;&#160;&#160;&#160;&#160;&#160;&#160;&#160;&#160;</text>
<text text-anchor="start" x="883" y="-240.8" font-family="Arial" font-size="10.00" fill="#374151">Object finalized event</text>
<text text-anchor="start" x="978" y="-240.8" font-family="Arial" font-size="14.00"> &#160;&#160;&#160;&#160;&#160;&#160;&#160;</text>
<polygon fill="none" stroke="#4285f4" points="782,-222 782,-280 1018,-280 1018,-222 782,-222"/>
</g>
<!-- gcs&#45;&gt;evt -->
<g id="edge4" class="edge">
<title>gcs&#45;&gt;evt</title>
<path fill="none" stroke="#4b5563" d="M468,-114.3C468,-161.95 468,-251 468,-251 468,-251 773.95,-251 773.95,-251"/>
<polygon fill="#4b5563" stroke="#4b5563" points="773.95,-253.8 781.95,-251 773.95,-248.2 773.95,-253.8"/>
<text text-anchor="middle" x="675" y="-188" font-family="Arial" font-size="10.00">parallel read&#45;only trigger</text>
</g>
<!-- chron -->
<g id="node4" class="node">
<title>chron</title>
<polygon fill="white" stroke="transparent" points="2723,-16 2723,-74 3016,-74 3016,-16 2723,-16"/>
<polygon fill="#fce8e6" stroke="transparent" points="2726.5,-19 2726.5,-71 2778.5,-71 2778.5,-19 2726.5,-19"/>
<text text-anchor="start" x="2741.5" y="-38.8" font-family="Arial" font-size="24.00">🛡</text>
<text text-anchor="start" x="2786.5" y="-48.8" font-family="Arial" font-size="14.00"> &#160;&#160;&#160;&#160;&#160;&#160;&#160;&#160;&#160;</text>
<text text-anchor="start" x="2824.5" y="-48.8" font-family="Arial" font-weight="bold" font-size="13.00">Chronicle / Google SecOps</text>
<text text-anchor="start" x="2786.5" y="-34.8" font-family="Arial" font-size="14.00"> &#160;&#160;&#160;&#160;&#160;&#160;&#160;&#160;&#160;</text>
<text text-anchor="start" x="2824.5" y="-34.8" font-family="Arial" font-size="10.00" fill="#374151">Security detections, broker bypass</text>
<text text-anchor="start" x="2976.5" y="-34.8" font-family="Arial" font-size="14.00"> &#160;&#160;&#160;&#160;&#160;&#160;&#160;</text>
<polygon fill="none" stroke="#ea4335" points="2723,-16 2723,-74 3016,-74 3016,-16 2723,-16"/>
</g>
<!-- cfc&#45;&gt;chron -->
<g id="edge3" class="edge">
<title>cfc&#45;&gt;chron</title>
<path fill="none" stroke="#4b5563" d="M2516.3,-45C2516.3,-45 2714.76,-45 2714.76,-45"/>
<polygon fill="#4b5563" stroke="#4b5563" points="2714.76,-47.8 2722.76,-45 2714.76,-42.2 2714.76,-47.8"/>
<text text-anchor="middle" x="2595" y="-62" font-family="Arial" font-size="10.00">filtered security events</text>
</g>
<!-- note -->
<g id="node14" class="node">
<title>note</title>
<polygon fill="#fff7ed" stroke="transparent" points="3124,-178 3124,-232 3500,-232 3500,-178 3124,-178"/>
<text text-anchor="start" x="3251" y="-212.4" font-family="Arial" font-weight="bold" font-size="12.00">Ownership Boundary</text>
<text text-anchor="start" x="3203.5" y="-202" font-family="Arial" font-size="10.00">Chronicle owns security detections and incidents.</text>
<text text-anchor="start" x="3135" y="-192" font-family="Arial" font-size="10.00">Governance platform owns data quality, dashboards, reports, and review context.</text>
<polygon fill="none" stroke="#f97316" points="3124,-178 3124,-232 3500,-232 3500,-178 3124,-178"/>
</g>
<!-- chron&#45;&gt;note -->
<g id="edge16" class="edge">
<title>chron&#45;&gt;note</title>
<path fill="none" stroke="#4b5563" stroke-dasharray="5,2" d="M3016.23,-45C3145.04,-45 3312,-45 3312,-45 3312,-45 3312,-132.21 3312,-177.86"/>
</g>
<!-- proc -->
<g id="node6" class="node">
<title>proc</title>
<polygon fill="white" stroke="transparent" points="1182,-220 1182,-278 1575,-278 1575,-220 1182,-220"/>
<polygon fill="#e6f4ea" stroke="transparent" points="1185.5,-223 1185.5,-275 1237.5,-275 1237.5,-223 1185.5,-223"/>
<text text-anchor="start" x="1200.5" y="-242.8" font-family="Arial" font-size="24.00">⚙</text>
<text text-anchor="start" x="1245.5" y="-252.8" font-family="Arial" font-size="14.00"> &#160;&#160;&#160;&#160;&#160;&#160;&#160;&#160;&#160;</text>
<text text-anchor="start" x="1283.5" y="-252.8" font-family="Arial" font-weight="bold" font-size="13.00">Cloud Run Job / Function</text>
<text text-anchor="start" x="1245.5" y="-238.8" font-family="Arial" font-size="14.00"> &#160;&#160;&#160;&#160;&#160;&#160;&#160;&#160;&#160;</text>
<text text-anchor="start" x="1283.5" y="-238.8" font-family="Arial" font-size="10.00" fill="#374151">Governance processorparse • dedupe • normalize • enrich</text>
<text text-anchor="start" x="1535.5" y="-238.8" font-family="Arial" font-size="14.00"> &#160;&#160;&#160;&#160;&#160;&#160;&#160;</text>
<polygon fill="none" stroke="#34a853" points="1182,-220 1182,-278 1575,-278 1575,-220 1182,-220"/>
</g>
<!-- evt&#45;&gt;proc -->
<g id="edge5" class="edge">
<title>evt&#45;&gt;proc</title>
<path fill="none" stroke="#4b5563" d="M1018.28,-259.33C1018.28,-259.33 1173.98,-259.33 1173.98,-259.33"/>
<polygon fill="#4b5563" stroke="#4b5563" points="1173.98,-262.13 1181.98,-259.33 1173.98,-256.53 1173.98,-262.13"/>
<text text-anchor="middle" x="1113" y="-253" font-family="Arial" font-size="10.00">object finalized</text>
</g>
<!-- bq1 -->
<g id="node8" class="node">
<title>bq1</title>
<polygon fill="white" stroke="transparent" points="1713,-218 1713,-276 1963,-276 1963,-218 1713,-218"/>
<polygon fill="#fff7e0" stroke="transparent" points="1716,-221 1716,-273 1768,-273 1768,-221 1716,-221"/>
<text text-anchor="start" x="1726.5" y="-240.8" font-family="Arial" font-size="24.00">📊</text>
<text text-anchor="start" x="1776" y="-250.8" font-family="Arial" font-size="14.00"> &#160;&#160;&#160;&#160;&#160;&#160;&#160;&#160;&#160;</text>
<text text-anchor="start" x="1814" y="-250.8" font-family="Arial" font-weight="bold" font-size="13.00">BigQuery</text>
<text text-anchor="start" x="1776" y="-236.8" font-family="Arial" font-size="14.00"> &#160;&#160;&#160;&#160;&#160;&#160;&#160;&#160;&#160;</text>
<text text-anchor="start" x="1814" y="-236.8" font-family="Arial" font-size="10.00" fill="#374151">normalized_audit_events</text>
<text text-anchor="start" x="1923" y="-236.8" font-family="Arial" font-size="14.00"> &#160;&#160;&#160;&#160;&#160;&#160;&#160;</text>
<polygon fill="none" stroke="#f9ab00" points="1713,-218 1713,-276 1963,-276 1963,-218 1713,-218"/>
</g>
<!-- proc&#45;&gt;bq1 -->
<g id="edge6" class="edge">
<title>proc&#45;&gt;bq1</title>
<path fill="none" stroke="#4b5563" d="M1575.04,-248C1575.04,-248 1704.75,-248 1704.75,-248"/>
<polygon fill="#4b5563" stroke="#4b5563" points="1704.75,-250.8 1712.75,-248 1704.75,-245.2 1704.75,-250.8"/>
<text text-anchor="middle" x="1644" y="-252" font-family="Arial" font-size="10.00">normalized events</text>
</g>
<!-- bq3 -->
<g id="node10" class="node">
<title>bq3</title>
<polygon fill="white" stroke="transparent" points="1992,-390 1992,-448 2222,-448 2222,-390 1992,-390"/>
<polygon fill="#fff7e0" stroke="transparent" points="1995,-393 1995,-445 2047,-445 2047,-393 1995,-393"/>
<text text-anchor="start" x="2005.5" y="-412.8" font-family="Arial" font-size="24.00">📊</text>
<text text-anchor="start" x="2055" y="-422.8" font-family="Arial" font-size="14.00"> &#160;&#160;&#160;&#160;&#160;&#160;&#160;&#160;&#160;</text>
<text text-anchor="start" x="2093" y="-422.8" font-family="Arial" font-weight="bold" font-size="13.00">BigQuery</text>
<text text-anchor="start" x="2055" y="-408.8" font-family="Arial" font-size="14.00"> &#160;&#160;&#160;&#160;&#160;&#160;&#160;&#160;&#160;</text>
<text text-anchor="start" x="2093" y="-408.8" font-family="Arial" font-size="10.00" fill="#374151">pipeline_health</text>
<text text-anchor="start" x="2158" y="-408.8" font-family="Arial" font-size="14.00"> &#160;&#160;&#160;&#160;&#160;&#160;&#160;</text>
<polygon fill="none" stroke="#f9ab00" points="1992,-390 1992,-448 2222,-448 2222,-390 1992,-390"/>
</g>
<!-- proc&#45;&gt;bq3 -->
<g id="edge7" class="edge">
<title>proc&#45;&gt;bq3</title>
<path fill="none" stroke="#4b5563" d="M1379,-278.22C1379,-326.83 1379,-419 1379,-419 1379,-419 1983.65,-419 1983.65,-419"/>
<polygon fill="#4b5563" stroke="#4b5563" points="1983.65,-421.8 1991.65,-419 1983.65,-416.2 1983.65,-421.8"/>
<text text-anchor="middle" x="1644" y="-361" font-family="Arial" font-size="10.00">run metrics</text>
</g>
<!-- meta -->
<g id="node7" class="node">
<title>meta</title>
<polygon fill="white" stroke="transparent" points="756,-121 756,-179 1044,-179 1044,-121 756,-121"/>
<polygon fill="#f7fee7" stroke="transparent" points="759,-124 759,-176 811,-176 811,-124 759,-124"/>
<text text-anchor="start" x="769.5" y="-143.8" font-family="Arial" font-size="24.00">📄</text>
<text text-anchor="start" x="819" y="-153.8" font-family="Arial" font-size="14.00"> &#160;&#160;&#160;&#160;&#160;&#160;&#160;&#160;&#160;</text>
<text text-anchor="start" x="857" y="-153.8" font-family="Arial" font-weight="bold" font-size="13.00">Metadata Source</text>
<text text-anchor="start" x="819" y="-139.8" font-family="Arial" font-size="14.00"> &#160;&#160;&#160;&#160;&#160;&#160;&#160;&#160;&#160;</text>
<text text-anchor="start" x="857" y="-139.8" font-family="Arial" font-size="10.00" fill="#374151">repo owner • app • BU • criticality</text>
<text text-anchor="start" x="1004" y="-139.8" font-family="Arial" font-size="14.00"> &#160;&#160;&#160;&#160;&#160;&#160;&#160;</text>
<polygon fill="none" stroke="#84cc16" points="756,-121 756,-179 1044,-179 1044,-121 756,-121"/>
</g>
<!-- meta&#45;&gt;proc -->
<g id="edge8" class="edge">
<title>meta&#45;&gt;proc</title>
<path fill="none" stroke="#4b5563" d="M1031,-179.19C1031,-205.69 1031,-240.67 1031,-240.67 1031,-240.67 1173.9,-240.67 1173.9,-240.67"/>
<polygon fill="#4b5563" stroke="#4b5563" points="1173.9,-243.47 1181.9,-240.67 1173.9,-237.87 1173.9,-243.47"/>
<text text-anchor="middle" x="1113" y="-180" font-family="Arial" font-size="10.00">enrichment lookup</text>
</g>
<!-- bq2 -->
<g id="node9" class="node">
<title>bq2</title>
<polygon fill="white" stroke="transparent" points="2268.5,-218 2268.5,-276 2498.5,-276 2498.5,-218 2268.5,-218"/>
<polygon fill="#fff7e0" stroke="transparent" points="2271.5,-221 2271.5,-273 2323.5,-273 2323.5,-221 2271.5,-221"/>
<text text-anchor="start" x="2282" y="-240.8" font-family="Arial" font-size="24.00">📊</text>
<text text-anchor="start" x="2331.5" y="-250.8" font-family="Arial" font-size="14.00"> &#160;&#160;&#160;&#160;&#160;&#160;&#160;&#160;&#160;</text>
<text text-anchor="start" x="2369.5" y="-250.8" font-family="Arial" font-weight="bold" font-size="13.00">BigQuery</text>
<text text-anchor="start" x="2331.5" y="-236.8" font-family="Arial" font-size="14.00"> &#160;&#160;&#160;&#160;&#160;&#160;&#160;&#160;&#160;</text>
<text text-anchor="start" x="2369.5" y="-236.8" font-family="Arial" font-size="10.00" fill="#374151">governance_events</text>
<text text-anchor="start" x="2454.5" y="-236.8" font-family="Arial" font-size="14.00"> &#160;&#160;&#160;&#160;&#160;&#160;&#160;</text>
<polygon fill="none" stroke="#f9ab00" points="2268.5,-218 2268.5,-276 2498.5,-276 2498.5,-218 2268.5,-218"/>
</g>
<!-- bq1&#45;&gt;bq2 -->
<g id="edge9" class="edge">
<title>bq1&#45;&gt;bq2</title>
<path fill="none" stroke="#4b5563" d="M1963.15,-247C1963.15,-247 2260.24,-247 2260.24,-247"/>
<polygon fill="#4b5563" stroke="#4b5563" points="2260.24,-249.8 2268.24,-247 2260.24,-244.2 2260.24,-249.8"/>
<text text-anchor="middle" x="2107" y="-250" font-family="Arial" font-size="10.00">rules engine / classification</text>
</g>
<!-- graf -->
<g id="node11" class="node">
<title>graf</title>
<polygon fill="white" stroke="transparent" points="2674,-337 2674,-395 3065,-395 3065,-337 2674,-337"/>
<polygon fill="#f3e8ff" stroke="transparent" points="2677.5,-340 2677.5,-392 2729.5,-392 2729.5,-340 2677.5,-340"/>
<text text-anchor="start" x="2688" y="-359.8" font-family="Arial" font-size="24.00">📈</text>
<text text-anchor="start" x="2737.5" y="-369.8" font-family="Arial" font-size="14.00"> &#160;&#160;&#160;&#160;&#160;&#160;&#160;&#160;&#160;</text>
<text text-anchor="start" x="2775.5" y="-369.8" font-family="Arial" font-weight="bold" font-size="13.00">Grafana</text>
<text text-anchor="start" x="2737.5" y="-355.8" font-family="Arial" font-size="14.00"> &#160;&#160;&#160;&#160;&#160;&#160;&#160;&#160;&#160;</text>
<text text-anchor="start" x="2775.5" y="-355.8" font-family="Arial" font-size="10.00" fill="#374151">Pipeline Health • Governance Overview • Repo Drilldown</text>
<text text-anchor="start" x="3025.5" y="-355.8" font-family="Arial" font-size="14.00"> &#160;&#160;&#160;&#160;&#160;&#160;&#160;</text>
<polygon fill="none" stroke="#a142f4" points="2674,-337 2674,-395 3065,-395 3065,-337 2674,-337"/>
</g>
<!-- bq1&#45;&gt;graf -->
<g id="edge10" class="edge">
<title>bq1&#45;&gt;graf</title>
<path fill="none" stroke="#4b5563" d="M1838,-276.14C1838,-308.02 1838,-354.67 1838,-354.67 1838,-354.67 2665.97,-354.67 2665.97,-354.67"/>
<polygon fill="#4b5563" stroke="#4b5563" points="2665.97,-357.47 2673.97,-354.67 2665.97,-351.87 2665.97,-357.47"/>
<text text-anchor="middle" x="2383.5" y="-365" font-family="Arial" font-size="10.00">queries</text>
</g>
<!-- ai -->
<g id="node13" class="node">
<title>ai</title>
<polygon fill="white" stroke="transparent" points="2726,-135 2726,-193 3013,-193 3013,-135 2726,-135"/>
<polygon fill="#e0f2fe" stroke="transparent" points="2729.5,-138 2729.5,-190 2781.5,-190 2781.5,-138 2729.5,-138"/>
<text text-anchor="start" x="2740" y="-157.8" font-family="Arial" font-size="24.00">🤖</text>
<text text-anchor="start" x="2789.5" y="-167.8" font-family="Arial" font-size="14.00"> &#160;&#160;&#160;&#160;&#160;&#160;&#160;&#160;&#160;</text>
<text text-anchor="start" x="2827.5" y="-167.8" font-family="Arial" font-weight="bold" font-size="13.00">Phase 4 AI Assistant</text>
<text text-anchor="start" x="2789.5" y="-153.8" font-family="Arial" font-size="14.00"> &#160;&#160;&#160;&#160;&#160;&#160;&#160;&#160;&#160;</text>
<text text-anchor="start" x="2827.5" y="-153.8" font-family="Arial" font-size="10.00" fill="#374151">read&#45;only tools • cited summaries</text>
<text text-anchor="start" x="2973.5" y="-153.8" font-family="Arial" font-size="14.00"> &#160;&#160;&#160;&#160;&#160;&#160;&#160;</text>
<polygon fill="none" stroke="#0ea5e9" points="2726,-135 2726,-193 3013,-193 3013,-135 2726,-135"/>
</g>
<!-- bq1&#45;&gt;ai -->
<g id="edge14" class="edge">
<title>bq1&#45;&gt;ai</title>
<path fill="none" stroke="#4b5563" d="M1838,-217.93C1838,-201.28 1838,-183.67 1838,-183.67 1838,-183.67 2717.8,-183.67 2717.8,-183.67"/>
<polygon fill="#4b5563" stroke="#4b5563" points="2717.8,-186.47 2725.8,-183.67 2717.8,-180.87 2717.8,-186.47"/>
<text text-anchor="middle" x="2383.5" y="-167" font-family="Arial" font-size="10.00">read&#45;only tools</text>
</g>
<!-- bq2&#45;&gt;graf -->
<g id="edge11" class="edge">
<title>bq2&#45;&gt;graf</title>
<path fill="none" stroke="#4b5563" d="M2498.88,-262.67C2586.13,-262.67 2691,-262.67 2691,-262.67 2691,-262.67 2691,-328.94 2691,-328.94"/>
<polygon fill="#4b5563" stroke="#4b5563" points="2688.2,-328.94 2691,-336.94 2693.8,-328.94 2688.2,-328.94"/>
<text text-anchor="middle" x="2595" y="-341" font-family="Arial" font-size="10.00">queries</text>
</g>
<!-- rep -->
<g id="node12" class="node">
<title>rep</title>
<polygon fill="white" stroke="transparent" points="2706.5,-236 2706.5,-294 3032.5,-294 3032.5,-236 2706.5,-236"/>
<polygon fill="#f3e8ff" stroke="transparent" points="2709.5,-239 2709.5,-291 2761.5,-291 2761.5,-239 2709.5,-239"/>
<text text-anchor="start" x="2720" y="-258.8" font-family="Arial" font-size="24.00">📝</text>
<text text-anchor="start" x="2769.5" y="-268.8" font-family="Arial" font-size="14.00"> &#160;&#160;&#160;&#160;&#160;&#160;&#160;&#160;&#160;</text>
<text text-anchor="start" x="2807.5" y="-268.8" font-family="Arial" font-weight="bold" font-size="13.00">Scheduled Reports</text>
<text text-anchor="start" x="2769.5" y="-254.8" font-family="Arial" font-size="14.00"> &#160;&#160;&#160;&#160;&#160;&#160;&#160;&#160;&#160;</text>
<text text-anchor="start" x="2807.5" y="-254.8" font-family="Arial" font-size="10.00" fill="#374151">weekly governance / compliance evidence</text>
<text text-anchor="start" x="2992.5" y="-254.8" font-family="Arial" font-size="14.00"> &#160;&#160;&#160;&#160;&#160;&#160;&#160;</text>
<polygon fill="none" stroke="#a142f4" points="2706.5,-236 2706.5,-294 3032.5,-294 3032.5,-236 2706.5,-236"/>
</g>
<!-- bq2&#45;&gt;rep -->
<g id="edge13" class="edge">
<title>bq2&#45;&gt;rep</title>
<path fill="none" stroke="#4b5563" d="M2498.68,-249.33C2498.68,-249.33 2698.42,-249.33 2698.42,-249.33"/>
<polygon fill="#4b5563" stroke="#4b5563" points="2698.42,-252.13 2706.42,-249.33 2698.42,-246.53 2698.42,-252.13"/>
<text text-anchor="middle" x="2595" y="-275" font-family="Arial" font-size="10.00">scheduled exports</text>
</g>
<!-- bq2&#45;&gt;ai -->
<g id="edge15" class="edge">
<title>bq2&#45;&gt;ai</title>
<path fill="none" stroke="#4b5563" d="M2384,-217.67C2384,-203 2384,-188.33 2384,-188.33 2384,-188.33 2717.8,-188.33 2717.8,-188.33"/>
<polygon fill="#4b5563" stroke="#4b5563" points="2717.8,-191.13 2725.8,-188.33 2717.8,-185.53 2717.8,-191.13"/>
<text text-anchor="middle" x="2595" y="-216" font-family="Arial" font-size="10.00">governance context</text>
</g>
<!-- bq3&#45;&gt;graf -->
<g id="edge12" class="edge">
<title>bq3&#45;&gt;graf</title>
<path fill="none" stroke="#4b5563" d="M2107,-389.98C2107,-380.49 2107,-372.33 2107,-372.33 2107,-372.33 2665.63,-372.33 2665.63,-372.33"/>
<polygon fill="#4b5563" stroke="#4b5563" points="2665.63,-375.13 2673.63,-372.33 2665.63,-369.53 2665.63,-375.13"/>
<text text-anchor="middle" x="2383.5" y="-462" font-family="Arial" font-size="10.00">queries</text>
</g>
<!-- graf&#45;&gt;note -->
<g id="edge17" class="edge">
<title>graf&#45;&gt;note</title>
<path fill="none" stroke="#4b5563" stroke-dasharray="5,2" d="M3049,-336.78C3049,-295.48 3049,-225 3049,-225 3049,-225 3081.51,-225 3123.66,-225"/>
</g>
</g>
</svg>
