<?xml version="1.0" encoding="UTF-8" standalone="no"?>
<!DOCTYPE svg PUBLIC "-//W3C//DTD SVG 1.1//EN"
 "http://www.w3.org/Graphics/SVG/1.1/DTD/svg11.dtd">
<!-- Generated by graphviz version 2.42.4 (0)
 -->
<!-- Title: github_governance_independent_processor_architecture Pages: 1 -->
<svg width="2539pt" height="589pt"
 viewBox="0.00 0.00 2538.80 588.80" xmlns="http://www.w3.org/2000/svg" xmlns:xlink="http://www.w3.org/1999/xlink">
<g id="graph0" class="graph" transform="scale(1 1) rotate(0) translate(32.4 556.4)">
<title>github_governance_independent_processor_architecture</title>
<polygon fill="white" stroke="transparent" points="-32.4,32.4 -32.4,-556.4 2506.4,-556.4 2506.4,32.4 -32.4,32.4"/>
<text text-anchor="middle" x="1237" y="-504" font-family="Arial" font-size="20.00">GitHub Governance Intelligence Platform — Independent Processor Architecture</text>
<g id="clust1" class="cluster">
<title>cluster_chronicle</title>
<path fill="white" stroke="#ef4444" stroke-width="1.4" stroke-dasharray="5,2" d="M569,-399C569,-399 1049,-399 1049,-399 1055,-399 1061,-405 1061,-411 1061,-411 1061,-474 1061,-474 1061,-480 1055,-486 1049,-486 1049,-486 569,-486 569,-486 563,-486 557,-480 557,-474 557,-474 557,-411 557,-411 557,-405 563,-399 569,-399"/>
<text text-anchor="middle" x="809" y="-472.4" font-family="Arial" font-size="12.00">Existing Chronicle / Security Path — unchanged</text>
</g>
<g id="clust2" class="cluster">
<title>cluster_gov</title>
<path fill="white" stroke="#2563eb" stroke-width="1.8" d="M569.5,-8C569.5,-8 2158,-8 2158,-8 2164,-8 2170,-14 2170,-20 2170,-20 2170,-379 2170,-379 2170,-385 2164,-391 2158,-391 2158,-391 569.5,-391 569.5,-391 563.5,-391 557.5,-385 557.5,-379 557.5,-379 557.5,-20 557.5,-20 557.5,-14 563.5,-8 569.5,-8"/>
<text text-anchor="middle" x="1363.75" y="-377.4" font-family="Arial" font-size="12.00">New Governance Intelligence Path — independent, read&#45;only</text>
</g>
<!-- GHE -->
<g id="node1" class="node">
<title>GHE</title>
<path fill="#e5e7eb" stroke="#334155" stroke-width="1.2" d="M95,-390C95,-390 12,-390 12,-390 6,-390 0,-384 0,-378 0,-378 0,-366 0,-366 0,-360 6,-354 12,-354 12,-354 95,-354 95,-354 101,-354 107,-360 107,-366 107,-366 107,-378 107,-378 107,-384 101,-390 95,-390"/>
<text text-anchor="middle" x="53.5" y="-375.2" font-family="Arial" font-size="11.00">GitHub Enterprise</text>
<text text-anchor="middle" x="53.5" y="-363.2" font-family="Arial" font-size="11.00">Audit Log Stream</text>
</g>
<!-- GCS -->
<g id="node2" class="node">
<title>GCS</title>
<path fill="#dbeafe" stroke="#334155" stroke-width="1.2" d="M390,-396C390,-396 247,-396 247,-396 241,-396 235,-390 235,-384 235,-384 235,-360 235,-360 235,-354 241,-348 247,-348 247,-348 390,-348 390,-348 396,-348 402,-354 402,-360 402,-360 402,-384 402,-384 402,-390 396,-396 390,-396"/>
<text text-anchor="middle" x="318.5" y="-381.2" font-family="Arial" font-size="11.00">Existing GCS Bucket</text>
<text text-anchor="middle" x="318.5" y="-369.2" font-family="Arial" font-size="11.00">Raw audit .json.gz files</text>
<text text-anchor="middle" x="318.5" y="-357.2" font-family="Arial" font-size="11.00">(already created for Chronicle)</text>
</g>
<!-- GHE&#45;&gt;GCS -->
<g id="edge1" class="edge">
<title>GHE&#45;&gt;GCS</title>
<path fill="none" stroke="#475569" d="M107.13,-372C107.13,-372 226.95,-372 226.95,-372"/>
<polygon fill="#475569" stroke="#475569" points="226.95,-374.8 234.95,-372 226.95,-369.2 226.95,-374.8"/>
<text text-anchor="middle" x="171" y="-374.8" font-family="Arial" font-size="9.00">audit log stream</text>
</g>
<!-- CF_CHR -->
<g id="node3" class="node">
<title>CF_CHR</title>
<path fill="#fee2e2" stroke="#334155" stroke-width="1.2" d="M687,-450C687,-450 577,-450 577,-450 571,-450 565,-444 565,-438 565,-438 565,-426 565,-426 565,-420 571,-414 577,-414 577,-414 687,-414 687,-414 693,-414 699,-420 699,-426 699,-426 699,-438 699,-438 699,-444 693,-450 687,-450"/>
<text text-anchor="middle" x="632" y="-435.2" font-family="Arial" font-size="11.00">Existing Cloud Function</text>
<text text-anchor="middle" x="632" y="-423.2" font-family="Arial" font-size="11.00">Filter selected events</text>
</g>
<!-- GCS&#45;&gt;CF_CHR -->
<g id="edge3" class="edge">
<title>GCS&#45;&gt;CF_CHR</title>
<path fill="none" stroke="#475569" d="M402.11,-379C501.77,-379 655,-379 655,-379 655,-379 655,-405.76 655,-405.76"/>
<polygon fill="#475569" stroke="#475569" points="652.2,-405.76 655,-413.76 657.8,-405.76 652.2,-405.76"/>
<text text-anchor="middle" x="483.5" y="-429.8" font-family="Arial" font-size="9.00">GCS object finalized</text>
</g>
<!-- EVENTARC -->
<g id="node5" class="node">
<title>EVENTARC</title>
<path fill="#dbeafe" stroke="#334155" stroke-width="1.2" d="M686.5,-309C686.5,-309 577.5,-309 577.5,-309 571.5,-309 565.5,-303 565.5,-297 565.5,-297 565.5,-285 565.5,-285 565.5,-279 571.5,-273 577.5,-273 577.5,-273 686.5,-273 686.5,-273 692.5,-273 698.5,-279 698.5,-285 698.5,-285 698.5,-297 698.5,-297 698.5,-303 692.5,-309 686.5,-309"/>
<text text-anchor="middle" x="632" y="-294.2" font-family="Arial" font-size="11.00">Eventarc / GCS Trigger</text>
<text text-anchor="middle" x="632" y="-282.2" font-family="Arial" font-size="11.00">Object finalized event</text>
</g>
<!-- GCS&#45;&gt;EVENTARC -->
<g id="edge22" class="edge">
<title>GCS&#45;&gt;EVENTARC</title>
<path fill="none" stroke="#475569" d="M402.03,-355C488.17,-355 610,-355 610,-355 610,-355 610,-317.17 610,-317.17"/>
<polygon fill="#475569" stroke="#475569" points="612.8,-317.17 610,-309.17 607.2,-317.17 612.8,-317.17"/>
<text text-anchor="middle" x="483.5" y="-347.8" font-family="Arial" font-size="9.00">parallel read&#45;only trigger</text>
</g>
<!-- CHR -->
<g id="node4" class="node">
<title>CHR</title>
<path fill="#fee2e2" stroke="#334155" stroke-width="1.2" d="M1041,-456C1041,-456 888,-456 888,-456 882,-456 876,-450 876,-444 876,-444 876,-420 876,-420 876,-414 882,-408 888,-408 888,-408 1041,-408 1041,-408 1047,-408 1053,-414 1053,-420 1053,-420 1053,-444 1053,-444 1053,-450 1047,-456 1041,-456"/>
<text text-anchor="middle" x="964.5" y="-441.2" font-family="Arial" font-size="11.00">Chronicle / Google SecOps</text>
<text text-anchor="middle" x="964.5" y="-429.2" font-family="Arial" font-size="11.00">Broker bypass detection</text>
<text text-anchor="middle" x="964.5" y="-417.2" font-family="Arial" font-size="11.00">Security alerts + SOC workflows</text>
</g>
<!-- CF_CHR&#45;&gt;CHR -->
<g id="edge2" class="edge">
<title>CF_CHR&#45;&gt;CHR</title>
<path fill="none" stroke="#475569" d="M699.29,-432C699.29,-432 867.86,-432 867.86,-432"/>
<polygon fill="#475569" stroke="#475569" points="867.86,-434.8 875.86,-432 867.86,-429.2 867.86,-434.8"/>
<text text-anchor="middle" x="775.5" y="-449.8" font-family="Arial" font-size="9.00">filtered security events</text>
</g>
<!-- BOUNDARY -->
<g id="node19" class="node">
<title>BOUNDARY</title>
<path fill="#fff7ed" stroke="#f97316" stroke-width="1.5" d="M2462,-438C2462,-438 2237,-438 2237,-438 2231,-438 2225,-432 2225,-426 2225,-426 2225,-340 2225,-340 2225,-334 2231,-328 2237,-328 2237,-328 2462,-328 2462,-328 2468,-328 2474,-334 2474,-340 2474,-340 2474,-426 2474,-426 2474,-432 2468,-438 2462,-438"/>
<text text-anchor="middle" x="2349.5" y="-423.2" font-family="Arial" font-size="11.00">Ownership Boundary</text>
<text text-anchor="middle" x="2349.5" y="-398.2" font-family="Arial" font-size="11.00">Chronicle owns security detections,</text>
<text text-anchor="middle" x="2349.5" y="-386.2" font-family="Arial" font-size="11.00">broker bypass alerts, incidents, SOC workflows.</text>
<text text-anchor="middle" x="2349.5" y="-361.2" font-family="Arial" font-size="11.00">Governance platform owns data quality,</text>
<text text-anchor="middle" x="2349.5" y="-349.2" font-family="Arial" font-size="11.00">dashboards, reports, review context,</text>
<text text-anchor="middle" x="2349.5" y="-337.2" font-family="Arial" font-size="11.00">and later AI summaries.</text>
</g>
<!-- CHR&#45;&gt;BOUNDARY -->
<g id="edge23" class="edge">
<title>CHR&#45;&gt;BOUNDARY</title>
<path fill="none" stroke="#475569" stroke-dasharray="5,2" d="M1053.24,-423C1292.06,-423 1948.9,-423 2224.84,-423"/>
</g>
<!-- PROC -->
<g id="node6" class="node">
<title>PROC</title>
<path fill="#dcfce7" stroke="#334155" stroke-width="1.2" d="M1065,-345.5C1065,-345.5 864,-345.5 864,-345.5 858,-345.5 852,-339.5 852,-333.5 852,-333.5 852,-224.5 852,-224.5 852,-218.5 858,-212.5 864,-212.5 864,-212.5 1065,-212.5 1065,-212.5 1071,-212.5 1077,-218.5 1077,-224.5 1077,-224.5 1077,-333.5 1077,-333.5 1077,-339.5 1071,-345.5 1065,-345.5"/>
<text text-anchor="middle" x="964.5" y="-330.7" font-family="Arial" font-size="11.00">Governance Processor</text>
<text text-anchor="middle" x="964.5" y="-318.7" font-family="Arial" font-size="11.00">Cloud Run Job or Cloud Function 2nd Gen</text>
<text text-anchor="middle" x="964.5" y="-293.7" font-family="Arial" font-size="11.00">1. Download file</text>
<text text-anchor="middle" x="964.5" y="-281.7" font-family="Arial" font-size="11.00">2. Decompress JSON.gz</text>
<text text-anchor="middle" x="964.5" y="-269.7" font-family="Arial" font-size="11.00">3. Parse events</text>
<text text-anchor="middle" x="964.5" y="-257.7" font-family="Arial" font-size="11.00">4. Dedupe</text>
<text text-anchor="middle" x="964.5" y="-245.7" font-family="Arial" font-size="11.00">5. Normalize</text>
<text text-anchor="middle" x="964.5" y="-233.7" font-family="Arial" font-size="11.00">6. Enrich</text>
<text text-anchor="middle" x="964.5" y="-221.7" font-family="Arial" font-size="11.00">7. Classify</text>
</g>
<!-- EVENTARC&#45;&gt;PROC -->
<g id="edge4" class="edge">
<title>EVENTARC&#45;&gt;PROC</title>
<path fill="none" stroke="#475569" d="M698.89,-291C698.89,-291 843.89,-291 843.89,-291"/>
<polygon fill="#475569" stroke="#475569" points="843.89,-293.8 851.89,-291 843.89,-288.2 843.89,-293.8"/>
<text text-anchor="middle" x="775.5" y="-289.8" font-family="Arial" font-size="9.00">invoke processor</text>
</g>
<!-- DLQ -->
<g id="node7" class="node">
<title>DLQ</title>
<path fill="#ffe4e6" stroke="#334155" stroke-width="1.2" d="M1385,-274C1385,-274 1253,-274 1253,-274 1247,-274 1241,-268 1241,-262 1241,-262 1241,-226 1241,-226 1241,-220 1247,-214 1253,-214 1253,-214 1385,-214 1385,-214 1391,-214 1397,-220 1397,-226 1397,-226 1397,-262 1397,-262 1397,-268 1391,-274 1385,-274"/>
<text text-anchor="middle" x="1319" y="-259.2" font-family="Arial" font-size="11.00">Dead Letter / Replay Queue</text>
<text text-anchor="middle" x="1319" y="-247.2" font-family="Arial" font-size="11.00">failed file path</text>
<text text-anchor="middle" x="1319" y="-235.2" font-family="Arial" font-size="11.00">error reason</text>
<text text-anchor="middle" x="1319" y="-223.2" font-family="Arial" font-size="11.00">retry count</text>
</g>
<!-- PROC&#45;&gt;DLQ -->
<g id="edge7" class="edge">
<title>PROC&#45;&gt;DLQ</title>
<path fill="none" stroke="#475569" d="M1077.15,-244C1077.15,-244 1232.87,-244 1232.87,-244"/>
<polygon fill="#475569" stroke="#475569" points="1232.87,-246.8 1240.87,-244 1232.87,-241.2 1232.87,-246.8"/>
<text text-anchor="middle" x="1156.5" y="-256.8" font-family="Arial" font-size="9.00">on parse/write failure</text>
</g>
<!-- BQ_RAW -->
<g id="node10" class="node">
<title>BQ_RAW</title>
<path fill="#fef3c7" stroke="#334155" stroke-width="1.2" d="M1377.5,-174C1377.5,-174 1260.5,-174 1260.5,-174 1254.5,-174 1248.5,-168 1248.5,-162 1248.5,-162 1248.5,-138 1248.5,-138 1248.5,-132 1254.5,-126 1260.5,-126 1260.5,-126 1377.5,-126 1377.5,-126 1383.5,-126 1389.5,-132 1389.5,-138 1389.5,-138 1389.5,-162 1389.5,-162 1389.5,-168 1383.5,-174 1377.5,-174"/>
<text text-anchor="middle" x="1319" y="-159.2" font-family="Arial" font-size="11.00">Analytics Store</text>
<text text-anchor="middle" x="1319" y="-147.2" font-family="Arial" font-size="11.00">normalized_audit_events</text>
<text text-anchor="middle" x="1319" y="-135.2" font-family="Arial" font-size="11.00">partitioned by event_date</text>
</g>
<!-- PROC&#45;&gt;BQ_RAW -->
<g id="edge5" class="edge">
<title>PROC&#45;&gt;BQ_RAW</title>
<path fill="none" stroke="#475569" d="M1068,-212.23C1068,-180.76 1068,-150 1068,-150 1068,-150 1240.41,-150 1240.41,-150"/>
<polygon fill="#475569" stroke="#475569" points="1240.41,-152.8 1248.41,-150 1240.41,-147.2 1240.41,-152.8"/>
<text text-anchor="middle" x="1156.5" y="-182.8" font-family="Arial" font-size="9.00">write normalized events</text>
</g>
<!-- BQ_HEALTH -->
<g id="node11" class="node">
<title>BQ_HEALTH</title>
<path fill="#fef3c7" stroke="#334155" stroke-width="1.2" d="M1377.5,-362C1377.5,-362 1260.5,-362 1260.5,-362 1254.5,-362 1248.5,-356 1248.5,-350 1248.5,-350 1248.5,-326 1248.5,-326 1248.5,-320 1254.5,-314 1260.5,-314 1260.5,-314 1377.5,-314 1377.5,-314 1383.5,-314 1389.5,-320 1389.5,-326 1389.5,-326 1389.5,-350 1389.5,-350 1389.5,-356 1383.5,-362 1377.5,-362"/>
<text text-anchor="middle" x="1319" y="-347.2" font-family="Arial" font-size="11.00">Analytics Store</text>
<text text-anchor="middle" x="1319" y="-335.2" font-family="Arial" font-size="11.00">pipeline_health</text>
<text text-anchor="middle" x="1319" y="-323.2" font-family="Arial" font-size="11.00">lag, dupes, parse failures</text>
</g>
<!-- PROC&#45;&gt;BQ_HEALTH -->
<g id="edge6" class="edge">
<title>PROC&#45;&gt;BQ_HEALTH</title>
<path fill="none" stroke="#475569" d="M1077.15,-329.75C1077.15,-329.75 1240.41,-329.75 1240.41,-329.75"/>
<polygon fill="#475569" stroke="#475569" points="1240.41,-332.55 1248.41,-329.75 1240.41,-326.95 1240.41,-332.55"/>
<text text-anchor="middle" x="1156.5" y="-330.8" font-family="Arial" font-size="9.00">write run metrics</text>
</g>
<!-- META_LOAD -->
<g id="node8" class="node">
<title>META_LOAD</title>
<path fill="#ecfccb" stroke="#334155" stroke-width="1.2" d="M1045.5,-83C1045.5,-83 883.5,-83 883.5,-83 877.5,-83 871.5,-77 871.5,-71 871.5,-71 871.5,-47 871.5,-47 871.5,-41 877.5,-35 883.5,-35 883.5,-35 1045.5,-35 1045.5,-35 1051.5,-35 1057.5,-41 1057.5,-47 1057.5,-47 1057.5,-71 1057.5,-71 1057.5,-77 1051.5,-83 1045.5,-83"/>
<text text-anchor="middle" x="964.5" y="-68.2" font-family="Arial" font-size="11.00">Metadata Loader</text>
<text text-anchor="middle" x="964.5" y="-56.2" font-family="Arial" font-size="11.00">Scheduled job / CSV / internal API</text>
<text text-anchor="middle" x="964.5" y="-44.2" font-family="Arial" font-size="11.00">repo owner, app, BU, criticality</text>
</g>
<!-- BQ_META -->
<g id="node12" class="node">
<title>BQ_META</title>
<path fill="#fef3c7" stroke="#334155" stroke-width="1.2" d="M1390,-83C1390,-83 1248,-83 1248,-83 1242,-83 1236,-77 1236,-71 1236,-71 1236,-47 1236,-47 1236,-41 1242,-35 1248,-35 1248,-35 1390,-35 1390,-35 1396,-35 1402,-41 1402,-47 1402,-47 1402,-71 1402,-71 1402,-77 1396,-83 1390,-83"/>
<text text-anchor="middle" x="1319" y="-68.2" font-family="Arial" font-size="11.00">Analytics Store</text>
<text text-anchor="middle" x="1319" y="-56.2" font-family="Arial" font-size="11.00">repo_metadata</text>
<text text-anchor="middle" x="1319" y="-44.2" font-family="Arial" font-size="11.00">owner, sensitivity, environment</text>
</g>
<!-- META_LOAD&#45;&gt;BQ_META -->
<g id="edge8" class="edge">
<title>META_LOAD&#45;&gt;BQ_META</title>
<path fill="none" stroke="#475569" d="M1057.64,-59C1057.64,-59 1227.85,-59 1227.85,-59"/>
<polygon fill="#475569" stroke="#475569" points="1227.85,-61.8 1235.85,-59 1227.85,-56.2 1227.85,-61.8"/>
<text text-anchor="middle" x="1156.5" y="-61.8" font-family="Arial" font-size="9.00">daily refresh</text>
</g>
<!-- RULES -->
<g id="node9" class="node">
<title>RULES</title>
<path fill="#dcfce7" stroke="#334155" stroke-width="1.2" d="M1650,-202C1650,-202 1527,-202 1527,-202 1521,-202 1515,-196 1515,-190 1515,-190 1515,-154 1515,-154 1515,-148 1521,-142 1527,-142 1527,-142 1650,-142 1650,-142 1656,-142 1662,-148 1662,-154 1662,-154 1662,-190 1662,-190 1662,-196 1656,-202 1650,-202"/>
<text text-anchor="middle" x="1588.5" y="-187.2" font-family="Arial" font-size="11.00">Governance Rules Engine</text>
<text text-anchor="middle" x="1588.5" y="-175.2" font-family="Arial" font-size="11.00">rules.yaml</text>
<text text-anchor="middle" x="1588.5" y="-163.2" font-family="Arial" font-size="11.00">severity + risk score</text>
<text text-anchor="middle" x="1588.5" y="-151.2" font-family="Arial" font-size="11.00">review&#45;required flag</text>
</g>
<!-- BQ_GOV -->
<g id="node13" class="node">
<title>BQ_GOV</title>
<path fill="#fef3c7" stroke="#334155" stroke-width="1.2" d="M1940,-196C1940,-196 1836,-196 1836,-196 1830,-196 1824,-190 1824,-184 1824,-184 1824,-160 1824,-160 1824,-154 1830,-148 1836,-148 1836,-148 1940,-148 1940,-148 1946,-148 1952,-154 1952,-160 1952,-160 1952,-184 1952,-184 1952,-190 1946,-196 1940,-196"/>
<text text-anchor="middle" x="1888" y="-181.2" font-family="Arial" font-size="11.00">Analytics Store</text>
<text text-anchor="middle" x="1888" y="-169.2" font-family="Arial" font-size="11.00">governance_events</text>
<text text-anchor="middle" x="1888" y="-157.2" font-family="Arial" font-size="11.00">classified events + risk</text>
</g>
<!-- RULES&#45;&gt;BQ_GOV -->
<g id="edge11" class="edge">
<title>RULES&#45;&gt;BQ_GOV</title>
<path fill="none" stroke="#475569" d="M1662.15,-172C1662.15,-172 1815.79,-172 1815.79,-172"/>
<polygon fill="#475569" stroke="#475569" points="1815.79,-174.8 1823.79,-172 1815.79,-169.2 1815.79,-174.8"/>
<text text-anchor="middle" x="1743" y="-174.8" font-family="Arial" font-size="9.00">write governance events</text>
</g>
<!-- BQ_RAW&#45;&gt;RULES -->
<g id="edge9" class="edge">
<title>BQ_RAW&#45;&gt;RULES</title>
<path fill="none" stroke="#475569" d="M1389.81,-158C1389.81,-158 1506.87,-158 1506.87,-158"/>
<polygon fill="#475569" stroke="#475569" points="1506.87,-160.8 1514.87,-158 1506.87,-155.2 1506.87,-160.8"/>
<text text-anchor="middle" x="1458.5" y="-204.8" font-family="Arial" font-size="9.00">events</text>
</g>
<!-- GRAFANA2 -->
<g id="node15" class="node">
<title>GRAFANA2</title>
<path fill="#f3e8ff" stroke="#334155" stroke-width="1.2" d="M2140,-316C2140,-316 2037,-316 2037,-316 2031,-316 2025,-310 2025,-304 2025,-304 2025,-292 2025,-292 2025,-286 2031,-280 2037,-280 2037,-280 2140,-280 2140,-280 2146,-280 2152,-286 2152,-292 2152,-292 2152,-304 2152,-304 2152,-310 2146,-316 2140,-316"/>
<text text-anchor="middle" x="2088.5" y="-301.2" font-family="Arial" font-size="11.00">Grafana Dashboard 2</text>
<text text-anchor="middle" x="2088.5" y="-289.2" font-family="Arial" font-size="11.00">Governance Overview</text>
</g>
<!-- BQ_RAW&#45;&gt;GRAFANA2 -->
<g id="edge14" class="edge">
<title>BQ_RAW&#45;&gt;GRAFANA2</title>
<path fill="none" stroke="#475569" d="M1389.82,-166C1424.54,-166 1459,-166 1459,-166 1459,-166 1459,-302.67 1459,-302.67 1459,-302.67 2016.97,-302.67 2016.97,-302.67"/>
<polygon fill="#475569" stroke="#475569" points="2016.97,-305.47 2024.97,-302.67 2016.97,-299.87 2016.97,-305.47"/>
</g>
<!-- AI -->
<g id="node18" class="node">
<title>AI</title>
<path fill="#e0f2fe" stroke="#334155" stroke-width="1.2" d="M2142.5,-140C2142.5,-140 2034.5,-140 2034.5,-140 2028.5,-140 2022.5,-134 2022.5,-128 2022.5,-128 2022.5,-104 2022.5,-104 2022.5,-98 2028.5,-92 2034.5,-92 2034.5,-92 2142.5,-92 2142.5,-92 2148.5,-92 2154.5,-98 2154.5,-104 2154.5,-104 2154.5,-128 2154.5,-128 2154.5,-134 2148.5,-140 2142.5,-140"/>
<text text-anchor="middle" x="2088.5" y="-125.2" font-family="Arial" font-size="11.00">Phase 4: AI Assistant</text>
<text text-anchor="middle" x="2088.5" y="-113.2" font-family="Arial" font-size="11.00">read&#45;only tools only</text>
<text text-anchor="middle" x="2088.5" y="-101.2" font-family="Arial" font-size="11.00">event citations required</text>
</g>
<!-- BQ_RAW&#45;&gt;AI -->
<g id="edge20" class="edge">
<title>BQ_RAW&#45;&gt;AI</title>
<path fill="none" stroke="#475569" d="M1389.67,-130.67C1389.67,-130.67 2014.26,-130.67 2014.26,-130.67"/>
<polygon fill="#475569" stroke="#475569" points="2014.26,-133.47 2022.26,-130.67 2014.26,-127.87 2014.26,-133.47"/>
</g>
<!-- GRAFANA1 -->
<g id="node14" class="node">
<title>GRAFANA1</title>
<path fill="#f3e8ff" stroke="#334155" stroke-width="1.2" d="M1639,-362C1639,-362 1538,-362 1538,-362 1532,-362 1526,-356 1526,-350 1526,-350 1526,-338 1526,-338 1526,-332 1532,-326 1538,-326 1538,-326 1639,-326 1639,-326 1645,-326 1651,-332 1651,-338 1651,-338 1651,-350 1651,-350 1651,-356 1645,-362 1639,-362"/>
<text text-anchor="middle" x="1588.5" y="-347.2" font-family="Arial" font-size="11.00">Grafana Dashboard 1</text>
<text text-anchor="middle" x="1588.5" y="-335.2" font-family="Arial" font-size="11.00">Audit Pipeline Health</text>
</g>
<!-- BQ_HEALTH&#45;&gt;GRAFANA1 -->
<g id="edge12" class="edge">
<title>BQ_HEALTH&#45;&gt;GRAFANA1</title>
<path fill="none" stroke="#475569" d="M1389.81,-344C1389.81,-344 1517.97,-344 1517.97,-344"/>
<polygon fill="#475569" stroke="#475569" points="1517.97,-346.8 1525.97,-344 1517.97,-341.2 1517.97,-346.8"/>
</g>
<!-- REPORTS -->
<g id="node17" class="node">
<title>REPORTS</title>
<path fill="#f3e8ff" stroke="#334155" stroke-width="1.2" d="M2150,-240C2150,-240 2027,-240 2027,-240 2021,-240 2015,-234 2015,-228 2015,-228 2015,-192 2015,-192 2015,-186 2021,-180 2027,-180 2027,-180 2150,-180 2150,-180 2156,-180 2162,-186 2162,-192 2162,-192 2162,-228 2162,-228 2162,-234 2156,-240 2150,-240"/>
<text text-anchor="middle" x="2088.5" y="-225.2" font-family="Arial" font-size="11.00">Scheduled Reports</text>
<text text-anchor="middle" x="2088.5" y="-213.2" font-family="Arial" font-size="11.00">privileged access</text>
<text text-anchor="middle" x="2088.5" y="-201.2" font-family="Arial" font-size="11.00">visibility changes</text>
<text text-anchor="middle" x="2088.5" y="-189.2" font-family="Arial" font-size="11.00">branch protection changes</text>
</g>
<!-- BQ_HEALTH&#45;&gt;REPORTS -->
<g id="edge18" class="edge">
<title>BQ_HEALTH&#45;&gt;REPORTS</title>
<path fill="none" stroke="#475569" d="M1389.75,-321C1567.74,-321 2020,-321 2020,-321 2020,-321 2020,-248.04 2020,-248.04"/>
<polygon fill="#475569" stroke="#475569" points="2022.8,-248.04 2020,-240.04 2017.2,-248.04 2022.8,-248.04"/>
</g>
<!-- BQ_META&#45;&gt;RULES -->
<g id="edge10" class="edge">
<title>BQ_META&#45;&gt;RULES</title>
<path fill="none" stroke="#475569" d="M1392,-83.39C1392,-110.34 1392,-150 1392,-150 1392,-150 1506.77,-150 1506.77,-150"/>
<polygon fill="#475569" stroke="#475569" points="1506.77,-152.8 1514.77,-150 1506.77,-147.2 1506.77,-152.8"/>
<text text-anchor="middle" x="1458.5" y="-149.8" font-family="Arial" font-size="9.00">repo context</text>
</g>
<!-- GRAFANA3 -->
<g id="node16" class="node">
<title>GRAFANA3</title>
<path fill="#f3e8ff" stroke="#334155" stroke-width="1.2" d="M2139,-52C2139,-52 2038,-52 2038,-52 2032,-52 2026,-46 2026,-40 2026,-40 2026,-28 2026,-28 2026,-22 2032,-16 2038,-16 2038,-16 2139,-16 2139,-16 2145,-16 2151,-22 2151,-28 2151,-28 2151,-40 2151,-40 2151,-46 2145,-52 2139,-52"/>
<text text-anchor="middle" x="2088.5" y="-37.2" font-family="Arial" font-size="11.00">Grafana Dashboard 3</text>
<text text-anchor="middle" x="2088.5" y="-25.2" font-family="Arial" font-size="11.00">Repo / Org Drilldown</text>
</g>
<!-- BQ_META&#45;&gt;GRAFANA3 -->
<g id="edge16" class="edge">
<title>BQ_META&#45;&gt;GRAFANA3</title>
<path fill="none" stroke="#475569" d="M1402.08,-40.67C1402.08,-40.67 2017.87,-40.67 2017.87,-40.67"/>
<polygon fill="#475569" stroke="#475569" points="2017.87,-43.47 2025.87,-40.67 2017.87,-37.87 2017.87,-43.47"/>
</g>
<!-- BQ_META&#45;&gt;AI -->
<g id="edge21" class="edge">
<title>BQ_META&#45;&gt;AI</title>
<path fill="none" stroke="#475569" d="M1395,-83.12C1395,-95.91 1395,-109 1395,-109 1395,-109 2014.32,-109 2014.32,-109"/>
<polygon fill="#475569" stroke="#475569" points="2014.32,-111.8 2022.32,-109 2014.32,-106.2 2014.32,-111.8"/>
</g>
<!-- BQ_GOV&#45;&gt;GRAFANA2 -->
<g id="edge13" class="edge">
<title>BQ_GOV&#45;&gt;GRAFANA2</title>
<path fill="none" stroke="#475569" d="M1888,-196.15C1888,-231.02 1888,-291.33 1888,-291.33 1888,-291.33 2016.79,-291.33 2016.79,-291.33"/>
<polygon fill="#475569" stroke="#475569" points="2016.79,-294.13 2024.79,-291.33 2016.79,-288.53 2016.79,-294.13"/>
</g>
<!-- BQ_GOV&#45;&gt;GRAFANA3 -->
<g id="edge15" class="edge">
<title>BQ_GOV&#45;&gt;GRAFANA3</title>
<path fill="none" stroke="#475569" d="M1867,-147.77C1867,-111.25 1867,-46.33 1867,-46.33 1867,-46.33 2017.92,-46.33 2017.92,-46.33"/>
<polygon fill="#475569" stroke="#475569" points="2017.92,-49.13 2025.92,-46.33 2017.92,-43.53 2017.92,-49.13"/>
</g>
<!-- BQ_GOV&#45;&gt;REPORTS -->
<g id="edge17" class="edge">
<title>BQ_GOV&#45;&gt;REPORTS</title>
<path fill="none" stroke="#475569" d="M1952.27,-188C1952.27,-188 2006.83,-188 2006.83,-188"/>
<polygon fill="#475569" stroke="#475569" points="2006.83,-190.8 2014.83,-188 2006.83,-185.2 2006.83,-190.8"/>
</g>
<!-- BQ_GOV&#45;&gt;AI -->
<g id="edge19" class="edge">
<title>BQ_GOV&#45;&gt;AI</title>
<path fill="none" stroke="#475569" d="M1910,-147.75C1910,-140.93 1910,-135.33 1910,-135.33 1910,-135.33 2014.29,-135.33 2014.29,-135.33"/>
<polygon fill="#475569" stroke="#475569" points="2014.29,-138.13 2022.29,-135.33 2014.29,-132.53 2014.29,-138.13"/>
</g>
<!-- GRAFANA2&#45;&gt;BOUNDARY -->
<g id="edge24" class="edge">
<title>GRAFANA2&#45;&gt;BOUNDARY</title>
<path fill="none" stroke="#475569" stroke-dasharray="5,2" d="M2089,-316.04C2089,-329.29 2089,-345 2089,-345 2089,-345 2158,-345 2224.97,-345"/>
</g>
</g>
</svg>
